<?xml version="1.0" encoding="utf-8"?>
<!-- Generator: Adobe Illustrator 26.0.0, SVG Export Plug-In . SVG Version: 6.00 Build 0)  -->
<svg version="1.1" id="Capa_1" xmlns="http://www.w3.org/2000/svg" xmlns:xlink="http://www.w3.org/1999/xlink" x="0px" y="0px"
	 viewBox="0 0 893.94 636.59" style="enable-background:new 0 0 893.94 636.59;" xml:space="preserve">
<style type="text/css">
	.st0{fill-rule:evenodd;clip-rule:evenodd;}
	.st1{fill-rule:evenodd;clip-rule:evenodd;fill:#FCFCFC;}
	.st2{fill-rule:evenodd;clip-rule:evenodd;fill:#FFFFFF;}
	.st3{fill:none;stroke:#000000;stroke-width:1.2283;stroke-linecap:round;stroke-linejoin:round;stroke-miterlimit:10;}
	.st4{fill-rule:evenodd;clip-rule:evenodd;fill:none;stroke:#CE0202;stroke-width:4;stroke-miterlimit:10;}
	.st5{fill:none;stroke:#D82E2E;stroke-width:5;stroke-miterlimit:10;}
	.st6{fill:none;stroke:#FF0000;stroke-width:4;stroke-miterlimit:10;}
	.st7{fill:#FFFFFF;}
	.st8{fill:#FFFFFF;stroke:#000000;stroke-miterlimit:10;}
	.st9{fill-rule:evenodd;clip-rule:evenodd;fill:#FFFFFF;stroke:#000000;stroke-miterlimit:10;}
	.st10{fill:#2CC08D;}
	.st11{fill:#2CC08D;stroke:#2CC08D;stroke-width:10;stroke-miterlimit:10;}
</style>
<g>
	<path class="st10" d="M115.72,137.19c-6.77,0-12.01,1.29-15.71,3.87c-3.71,2.58-6.28,7.42-7.73,14.5
		c-1.45,7.09-2.17,17.72-2.17,31.9V244c0,15.15-1.69,27.55-5.07,37.21c-3.38,9.67-7.49,17.16-12.32,22.47
		c-4.83,5.32-9.67,9.42-14.5,12.32c4.51,2.9,9.18,7.01,14.02,12.32c4.83,5.32,9.02,12.32,12.57,21.02
		c3.54,8.7,5.32,19.66,5.32,32.86v63.31c0,13.86,0.72,24.41,2.17,31.66c1.45,7.25,4.02,12.16,7.73,14.74
		c3.7,2.57,8.94,3.87,15.71,3.87h21.26v39.63h-30.93c-8.06,0-15.79-0.24-23.2-0.73c-7.42-0.48-14.1-2.5-20.06-6.04
		c-5.97-3.55-10.72-9.75-14.26-18.61c-3.55-8.87-5.32-21.83-5.32-38.9v-76.36c0-9.34-1.29-18.52-3.87-27.55
		c-2.58-9.02-6.69-16.59-12.32-22.71c-5.64-6.12-13.13-9.18-22.47-9.18v-39.63c9.34-0.32,16.83-3.46,22.47-9.42
		c5.63-5.96,9.74-13.53,12.32-22.71c2.58-9.18,3.87-18.44,3.87-27.79v-80.23c0-15.14,1.77-26.74,5.32-34.8
		c3.54-8.05,8.29-13.69,14.26-16.92c5.96-3.22,12.72-5.07,20.3-5.56c7.57-0.48,15.22-0.73,22.96-0.73h30.93v39.63H115.72z"/>
	<path class="st11" d="M282.93,468.24c-19.66,0-37.45-3.95-53.4-11.84c-15.95-7.89-28.6-20.06-37.94-36.49
		c-9.35-16.43-14.02-37.37-14.02-62.83c0-23.84,4.83-44.46,14.5-61.86c9.67-17.4,22.39-30.85,38.18-40.35
		c15.78-9.5,32.54-14.26,50.26-14.26c20.94,0,36.81,3.47,47.6,10.39c10.79,6.93,19.73,14.58,26.82,22.96l-2.9,8.22l6.28-30.93h62.83
		v211.2h-67.66v-45.91l5.32,14.5c-0.65,0-2.58,1.86-5.8,5.56c-3.22,3.71-7.97,8.06-14.26,13.05c-6.28,5-14.02,9.35-23.2,13.05
		S295.5,468.24,282.93,468.24z M302.26,413.15c8.05,0,15.3-1.21,21.75-3.62c6.44-2.42,12.08-5.96,16.92-10.63
		c4.83-4.67,9.02-10.55,12.57-17.64v-51.71c-2.58-7.08-6.45-13.12-11.6-18.12c-5.16-4.99-11.28-8.86-18.36-11.6
		c-7.09-2.73-14.98-4.11-23.68-4.11c-9.67,0-18.61,2.5-26.82,7.49c-8.22,5-14.74,11.84-19.57,20.54c-4.83,8.7-7.25,18.69-7.25,29.96
		c0,11.28,2.57,21.43,7.73,30.45c5.15,9.02,12,16.11,20.54,21.26C283.01,410.57,292.27,413.15,302.26,413.15z"/>
	<path class="st11" d="M594.65,468.24c-25.78,0-47.6-4.83-65.49-14.5c-17.88-9.67-31.5-23.03-40.84-40.11
		c-9.35-17.07-14.02-36.73-14.02-58.96c0-21.26,5.47-40.43,16.43-57.51c10.95-17.07,25.61-30.69,43.98-40.84
		c18.36-10.15,38.82-15.22,61.38-15.22c30.28,0,55.17,8.78,74.67,26.34c19.49,17.56,32.14,42.94,37.94,76.12l-164.32,52.19
		l-14.98-36.73l118.89-40.11l-14.02,6.28c-2.58-8.37-7.17-15.71-13.77-21.99c-6.61-6.28-16.51-9.42-29.72-9.42
		c-9.99,0-18.77,2.34-26.34,7.01c-7.57,4.67-13.37,11.28-17.4,19.81c-4.03,8.54-6.04,18.61-6.04,30.21c0,13.21,2.42,24.25,7.25,33.1
		c4.83,8.87,11.43,15.55,19.81,20.06c8.37,4.52,17.72,6.77,28.03,6.77c7.41,0,14.57-1.28,21.51-3.87
		c6.92-2.58,13.77-5.96,20.54-10.15l29.96,50.26c-11.28,6.45-23.44,11.6-36.49,15.47C618.57,466.31,606.25,468.24,594.65,468.24z"/>
	<path class="st10" d="M775.88,495.79c6.77,0,11.92-1.29,15.47-3.87c3.54-2.58,6.04-7.49,7.49-14.74c1.45-7.25,2.17-17.8,2.17-31.66
		v-63.31c0-13.53,1.85-24.65,5.56-33.35c3.7-8.7,8.05-15.62,13.05-20.78c4.99-5.15,9.42-8.86,13.29-11.12
		c-3.87-3.22-8.38-7.41-13.53-12.57c-5.16-5.15-9.51-12.16-13.05-21.02c-3.55-8.86-5.32-19.89-5.32-33.1v-63.31
		c0-14.17-0.72-24.81-2.17-31.9c-1.45-7.08-3.95-11.84-7.49-14.26c-3.55-2.42-8.7-3.62-15.47-3.62h-21.75V97.56h30.45
		c7.73,0,15.3,0.17,22.71,0.48c7.41,0.32,14.17,2.1,20.3,5.32c6.12,3.22,11.03,8.87,14.74,16.92c3.7,8.06,5.56,19.66,5.56,34.8
		v76.36c0,6.45,0.56,13.46,1.69,21.02c1.12,7.57,3.06,14.74,5.8,21.51c2.73,6.77,6.68,12.32,11.84,16.67
		c5.15,4.35,11.6,6.69,19.33,7.01v39.63c-7.73,0-14.18,2.26-19.33,6.77c-5.16,4.52-9.11,10.07-11.84,16.67
		c-2.74,6.61-4.67,13.7-5.8,21.26c-1.13,7.57-1.69,14.74-1.69,21.51v73.94c0,15.14-1.77,26.74-5.32,34.8
		c-3.55,8.05-8.38,13.69-14.5,16.92c-6.12,3.22-12.89,5.07-20.3,5.56c-7.42,0.48-15.15,0.73-23.2,0.73h-30.45v-39.63H775.88z"/>
</g>
</svg>
